<svg xmlns="http://www.w3.org/2000/svg" viewBox="0 0 200 200"><defs><style>.cls-1{fill:#f7df1e;}.cls-2{fill:none;stroke:#000;stroke-miterlimit:10;}</style></defs><title>Asset 3</title><g id="Layer_2" data-name="Layer 2"><g id="fill"><rect class="cls-1" width="200" height="200"/><path class="cls-2" d="M99.43,167.42a19.71,19.71,0,0,0,7.71,6.54l4,4a16.27,16.27,0,0,0,4.82,2.71c13.82,4.88,29.46-11.41,30.51-12.52a149.34,149.34,0,0,0,14.76-24.09,151.47,151.47,0,0,0,14.33-48.86c-.28-7.53-.91-10.14-1.55-10.76a4.75,4.75,0,0,1-.84-1.06,4.9,4.9,0,0,1-.58-1.74c-1.6-2.11-3-2.65-4-2.74a21.84,21.84,0,0,0-2.89.27,25.62,25.62,0,0,1-3.39,0c-2.39-.07-5,1-7.42,2.58a256.58,256.58,0,0,0-24,16.93c-11.08,8.8-19,15.2-26.61,25.53-4.5,6.11-19.45,26.46-12.44,37.61A14.36,14.36,0,0,0,99.43,167.42Z"/><path d="M93.81,161.51c-2.73-3.74-1.44-9.16-.77-12,3.48-14.62,21-32.78,23.75-35.62,15-15.38,20.07-15.78,30.21-25.21A40.25,40.25,0,0,1,157,82.46a13.78,13.78,0,0,1,5.66-1.29c.89,0,1.33,0,1.48.13,1.84,1.64-12.71,19.39-27.36,40.55-11.26,16.27-16.71,26.08-31.2,43.91-1.58,2-4.57,3.41-3.46,4.21a24.16,24.16,0,0,1-3.58-3.35C95.37,163.16,94.51,162.47,93.81,161.51Z"/><path d="M104.51,171.59c.14.22.82.24,2.58,0s3.25-.53,3.63-.62c8-1.95,20.24-19.77,20.24-19.77,2.44-3.55,4.25-6.34,6.68-10.14,9.17-14.35,13.75-21.52,17.22-27.71C163,98.9,167.5,87.48,167.81,87.62s-1.5,4.36-3.08,8.15c-9.17,22-18.37,36-32.56,57.36a83,83,0,0,1-10.8,12.3c-3.58,3.45-6,5.2-9.19,6.09-2.92.81-6.17.81-6.15,1.14s1.19.23,3,.6a24.26,24.26,0,0,1,5,1.67c4.41,1.72,13.34-4.11,19.94-10.92a61.47,61.47,0,0,0,6.63-8.19,191.44,191.44,0,0,0,16.72-29.59c.92-2,3.86-9.56,9.75-24.67a67.12,67.12,0,0,0,2.4-7.27,66.45,66.45,0,0,0,1.82-9.88l-1.76-1.63-2.74-.62c-.33,1-.88,2.52-1.62,4.44a152.33,152.33,0,0,1-12.21,24.59c-5.8,9.67-23.93,39.83-41.15,53.23C111.5,164.59,103.85,170.56,104.51,171.59Z"/><path d="M103.72,169.81a34.59,34.59,0,0,0,3.74-2.58,34,34,0,0,0,3.37-3.08c6.6-6.82,11.34-12.86,11.34-12.87,5-6.33,8.49-11.3,8.83-11.78,0,0,22.76-32.17,32-50.19a35.45,35.45,0,0,0,1.92-4.6,28.59,28.59,0,0,0,.82-3.08,57.42,57.42,0,0,1-5.87,11.74c-14.15,21.8-21.23,32.7-29.86,44.47-3.85,5.24-5.93,7.93-9.48,12.53A190.84,190.84,0,0,1,108,165.43C106.24,167.31,104.74,168.81,103.72,169.81Z"/><path d="M172.45,85.81l.76,1.27a128.79,128.79,0,0,1-9.44,43.66c-7.22,17.54-25.88,51.47-44.22,49.07a16.65,16.65,0,0,1-8-3.54,3.07,3.07,0,0,1,1-.63,4.24,4.24,0,0,1,3.11.34s1.21.46,6-.43C136.42,172.8,150.36,148,150.36,148,157,136.08,166.7,115.59,172.45,85.81Z"/></g></g></svg>